<?xml version="1.0" encoding="UTF-8"?>
<svg id="Layer_2" data-name="Layer 2" xmlns="http://www.w3.org/2000/svg" viewBox="0 0 83.59 71.4">
  <g id="Layer_1-2" data-name="Layer 1">
    <g>
      <path d="M75.79,36.4c-3,.7-4.3,1.8-4.3,3.9s2,3.4,4.8,3.4c4,0,7.3-2.2,7.3-5.9v-3.1l-7.8,1.7Z"/>
      <path d="M72.09,25.8l9.5-1.7c1.2-.2,1.9-.7,1.9-1.6v-.3c0-1.6-2.3-3.3-5.3-3.3-2.79,0-4.45,1.12-5.32,2.42-.69,1.03-1.91,1.58-3.14,1.58h-17.12s0-21.5,0-21.5h-18.9v.5c.1,1.6.4,2.9,1.4,4.9l.7,1.5-.3.2-1.8-2.5c-2.4-3.6-7.9-6-12.6-6C7.9,0,0,8.6,0,24.6v4.1c0,14.4,7.9,24.1,21.1,24.1,4.5,0,9.6-1.7,12-5.3h.6v23.9h18.9v-28.73s.01.08.02.12c0-.16-.02-.32-.02-.49v-.59c.16-10.27,8.59-13.93,19.49-15.91ZM33.6,28.9c0,7-2.8,11.1-7.6,11.1-4.5,0-7.1-4-7.1-11.1v-4.9c0-6.9,2.8-11.1,7.3-11.1s7.4,4.2,7.4,11.1v4.9Z"/>
    </g>
  </g>
</svg>